<svg width="30" height="30" viewBox="0 0 30 30" fill="none" xmlns="http://www.w3.org/2000/svg">
<path d="M15 0.46875C6.71371 0.46875 0 6.97266 0 15C0 23.0273 6.71371 29.5312 15 29.5312C23.2863 29.5312 30 23.0273 30 15C30 6.97266 23.2863 0.46875 15 0.46875ZM22.3669 10.4238L19.9052 21.6621C19.7238 22.459 19.2339 22.6523 18.5504 22.2773L14.8004 19.5996L12.9919 21.2871C12.7923 21.4805 12.623 21.6445 12.2359 21.6445L12.502 17.9473L19.4516 11.8652C19.754 11.6074 19.3851 11.4609 18.9859 11.7188L10.3972 16.957L6.69556 15.8379C5.89113 15.5918 5.87298 15.0586 6.86492 14.6836L21.3266 9.28125C21.998 9.04687 22.5847 9.43945 22.3669 10.4238V10.4238Z" fill="black"/>
</svg>
